<?xml version="1.0" standalone="no"?>
<!DOCTYPE svg PUBLIC "-//W3C//DTD SVG 20010904//EN"
 "http://www.w3.org/TR/2001/REC-SVG-20010904/DTD/svg10.dtd">
<svg version="1.0" xmlns="http://www.w3.org/2000/svg"
 width="300.000000pt" height="300.000000pt" viewBox="0 0 300.000000 300.000000"
 preserveAspectRatio="xMidYMid meet">
<metadata>
Created by potrace 1.10, written by Peter Selinger 2001-2011
</metadata>
<g transform="translate(0.000000,300.000000) scale(0.100000,-0.100000)"
fill="#000000" stroke="none">
<path d="M410 2301 l0 -290 128 -363 c71 -200 131 -370 134 -378 5 -13 6 -13
11 0 3 8 55 164 117 345 90 264 118 336 141 360 l29 30 143 3 142 3 0 -378 c0
-360 1 -380 20 -411 44 -73 139 -100 214 -60 89 46 86 28 89 464 l3 384 92 0
92 0 -3 -382 c-3 -460 -3 -460 -95 -553 -77 -78 -142 -105 -252 -105 -105 0
-174 28 -246 99 -89 89 -92 103 -99 456 -3 165 -7 292 -8 283 -1 -9 -67 -196
-146 -415 l-144 -398 -93 -3 -94 -2 -50 137 c-27 76 -66 183 -87 238 l-37 100
0 -527 -1 -528 1090 0 1090 0 0 1090 0 1090 -1090 0 -1090 0 0 -289z m2132
241 c8 -8 14 -1090 7 -1096 -2 -2 -28 23 -57 55 l-53 58 25 38 c31 46 48 130
40 187 -17 110 -113 215 -224 245 -25 7 -128 15 -230 18 -153 5 -191 3 -222
-10 -32 -14 -41 -14 -80 0 -57 20 -153 12 -180 -14 -18 -18 -19 -41 -21 -379
-2 -324 -4 -362 -20 -392 -50 -92 -173 -93 -219 -1 -16 30 -18 71 -18 387 0
211 -4 361 -10 372 -15 27 -64 40 -159 40 -132 0 -159 -7 -205 -54 -36 -37
-47 -60 -95 -206 -29 -91 -60 -178 -67 -195 -7 -16 -25 -67 -39 -112 -15 -47
-32 -83 -39 -83 -7 0 -20 21 -29 48 -32 95 -115 328 -126 356 -6 15 -25 68
-41 116 l-29 87 -1 262 c-1 158 3 267 9 274 7 9 259 11 1042 9 568 -1 1037 -6
1041 -10z m-300 -543 c65 -14 97 -30 144 -72 106 -93 112 -272 11 -353 l-36
-28 38 -17 c47 -21 104 -87 119 -138 29 -95 7 -209 -54 -280 -83 -97 -173
-121 -451 -121 l-193 0 0 510 0 510 185 0 c101 0 208 -5 237 -11z m-1206 -602
c1 -124 5 -173 18 -211 34 -98 113 -183 211 -227 41 -18 69 -23 150 -23 91 -1
106 2 165 30 66 31 141 98 171 154 9 16 19 27 23 23 3 -3 6 -36 6 -73 0 -57 3
-70 23 -89 23 -21 30 -22 248 -20 194 1 232 4 284 21 69 23 130 69 176 133 18
25 35 45 38 45 7 0 3 -679 -4 -698 -3 -10 -218 -12 -1047 -10 l-1043 3 -3 378
c-2 349 3 426 23 355 18 -63 71 -186 88 -205 19 -21 30 -23 117 -23 114 0 115
1 155 105 15 39 34 88 42 110 27 70 104 289 114 325 8 26 33 60 43 60 1 0 1
-73 2 -163z"/>
<path d="M2010 1724 l0 -106 106 4 c105 3 106 3 135 36 57 64 27 146 -61 163
-25 4 -75 8 -112 9 l-68 0 0 -106z m210 41 c27 -24 25 -62 -2 -86 -18 -14 -40
-18 -95 -19 -40 0 -73 3 -74 8 -8 65 -4 104 10 113 25 15 139 4 161 -16z"/>
<path d="M2010 1301 l0 -134 111 7 c124 8 165 20 197 61 30 37 30 112 2 143
-39 41 -71 50 -193 54 l-117 3 0 -134z m222 89 c44 -13 68 -43 68 -85 -1 -60
-40 -85 -148 -90 -42 -2 -83 0 -91 4 -18 11 -16 162 2 173 18 11 126 10 169
-2z"/>
<path d="M213 1993 c6 -23 175 -472 187 -498 5 -12 8 82 7 245 l-2 265 -99 3
c-91 3 -98 1 -93 -15z m165 -152 c1 -74 0 -142 -4 -150 -5 -15 -57 102 -100
228 -18 54 -10 62 56 59 l45 -3 3 -134z"/>
</g>
</svg>
